HIERARCHY
ROOT Hips
{
	OFFSET 0.000000 0.000000 0.000000
	CHANNELS 6 Xposition Yposition Zposition Zrotation Xrotation Yrotation
	JOINT RightUpLeg
	{
		OFFSET -10.032200 0.000000 0.000000
		CHANNELS 3 Zrotation Xrotation Yrotation
		JOINT RightLeg
		{
			OFFSET 0.000000 -40.977000 0.000000
			CHANNELS 3 Zrotation Xrotation Yrotation
			JOINT RightFoot
			{
				OFFSET 0.000000 -38.933200 0.000000
				CHANNELS 3 Zrotation Xrotation Yrotation
				JOINT RightToe
				{
					OFFSET 0.000000 -1.977400 9.184000
					CHANNELS 3 Zrotation Xrotation Yrotation
					JOINT RightToeEnd
					{
						OFFSET 0.000000 2.335600 6.099100
						CHANNELS 3 Zrotation Xrotation Yrotation
						End Site
						{
						    OFFSET 0.000000 1.788000 4.669400
						}
					}
				}
			}
		}
	}
	JOINT LeftUpLeg
	{
		OFFSET 10.032200 0.000000 0.000000
		CHANNELS 3 Zrotation Xrotation Yrotation
		JOINT LeftLeg
		{
			OFFSET 0.000000 -40.977000 0.000000
			CHANNELS 3 Zrotation Xrotation Yrotation
			JOINT LeftFoot
			{
				OFFSET 0.000000 -38.933200 0.000000
				CHANNELS 3 Zrotation Xrotation Yrotation
				JOINT LeftToe
				{
					OFFSET 0.000000 -1.977400 9.184000
					CHANNELS 3 Zrotation Xrotation Yrotation
					JOINT LeftToeEnd
					{
						OFFSET 0.000000 2.335600 6.099100
						CHANNELS 3 Zrotation Xrotation Yrotation
						End Site
						{
						    OFFSET 0.000000 1.788000 4.669400
						}
					}
				}
			}
		}
	}
	JOINT Spine
	{
		OFFSET 0.000000 16.960900 0.000000
		CHANNELS 3 Zrotation Xrotation Yrotation
		JOINT Spine1
		{
			OFFSET 0.000000 13.413900 0.000000
			CHANNELS 3 Zrotation Xrotation Yrotation
			JOINT Spine2
			{
				OFFSET 0.000000 10.384400 0.000000
				CHANNELS 3 Zrotation Xrotation Yrotation
				JOINT LeftShoulder
				{
					OFFSET 2.000000 10.384400 0.000000
					CHANNELS 3 Zrotation Xrotation Yrotation
					JOINT LeftArm
					{
						OFFSET 15.649100 0.000000 0.000000
						CHANNELS 3 Zrotation Xrotation Yrotation
						JOINT LeftForeArm
						{
							OFFSET 0.000000 -26.641600 0.000000
							CHANNELS 3 Zrotation Xrotation Yrotation
							JOINT LeftHand
							{
								OFFSET 0.000000 -23.740600 0.000000
								CHANNELS 3 Zrotation Xrotation Yrotation
								JOINT LeftFinger0
								{
									OFFSET 0.000000 -7.620900 0.000000
									CHANNELS 3 Zrotation Xrotation Yrotation
									End Site
									{
									    OFFSET 0.000000 -5.000000 0.000000
									}
								}
							}
						}
					}
				}
				JOINT RightShoulder
				{
					OFFSET -2.000000 10.384400 0.000000
					CHANNELS 3 Zrotation Xrotation Yrotation
					JOINT RightArm
					{
						OFFSET -15.649100 0.000000 0.000000
						CHANNELS 3 Zrotation Xrotation Yrotation
						JOINT RightForeArm
						{
							OFFSET 0.000000 -26.641600 0.000000
							CHANNELS 3 Zrotation Xrotation Yrotation
							JOINT RightHand
							{
								OFFSET 0.000000 -23.740600 0.000000
								CHANNELS 3 Zrotation Xrotation Yrotation
								JOINT RightFinger0
								{
									OFFSET 0.000000 -7.620900 0.000000
									CHANNELS 3 Zrotation Xrotation Yrotation
									End Site
									{
									    OFFSET 0.000000 -5.000000 0.000000
									}
								}
							}
						}
					}
				}
				JOINT Neck
				{
					OFFSET 0.000000 10.384400 0.000000
					CHANNELS 3 Zrotation Xrotation Yrotation
					JOINT Head
					{
						OFFSET 0.000000 10.146900 0.000000
						CHANNELS 3 Zrotation Xrotation Yrotation
						JOINT HeadTip
						{
							OFFSET 0.000000 10.000000 0.000000
							CHANNELS 3 Zrotation Xrotation Yrotation
							End Site
							{
							    OFFSET 0.000000 5.000000 0.000000
							}
						}
					}
				}
			}
		}
	}
}
MOTION
Frames:	10
Frame Time:	0.033332
-116.007500 86.908400 -51.511100 -2.345882 2.690305 60.120198 -2.668810 -17.699465 -29.269483 -0.000000 16.952605 -0.000000 2.409617 20.875245 6.898908 -0.000000 2.722334 0.000000 -0.000000 -0.000000 -0.000000 7.047747 -6.101879 34.274127 0.000000 35.766587 0.000000 -7.831216 24.979380 -7.255574 -0.000000 -13.637690 0.000000 -0.000000 0.000000 0.000000 1.885239 7.422065 -6.392013 -0.000000 1.900552 -0.000000 -0.000000 0.000000 -0.000000 -0.142324 -0.000000 -2.081316 76.428380 -16.208795 40.634317 0.000000 -51.715461 0.000000 9.511684 8.249374 -6.888612 -0.000000 -0.000000 -0.000000 -1.454074 0.000000 -0.097807 -46.099197 22.977796 -33.219127 -179.999632 -69.428582 -179.999453 -1.412234 17.654161 11.957782 -0.000000 -0.000000 -0.000000 -0.000000 0.000000 -0.000000 -1.753961 26.072114 119.011181 -0.000000 0.000000 -0.000000 
-118.219700 86.195800 -51.902900 -3.110861 1.579878 62.054398 -1.696325 -19.803957 -30.158603 -0.000000 18.512298 -0.000000 1.772736 20.855071 6.300560 -0.000000 2.345603 0.000000 -0.000000 -0.000000 -0.000000 6.680176 -4.770022 34.584146 -0.000000 30.494147 -0.000000 -4.721580 20.325082 -8.313617 0.000000 -19.077335 -0.000000 -0.000000 -0.000000 -0.000000 2.413595 7.440171 -7.793156 0.000000 1.686454 0.000000 -0.000000 -0.000000 0.000000 0.651610 0.000000 -3.552287 79.711266 -18.511986 38.609907 0.000000 -46.691200 -0.000000 7.965400 8.967937 -9.410292 -0.000000 0.000000 -0.000000 0.645370 -0.000000 -0.028373 -42.988016 23.906517 -29.075892 -179.999521 -73.603174 -179.999347 -0.077440 19.767603 14.814655 -0.000000 0.000000 0.000000 -0.000000 -0.000000 0.000000 0.820549 24.565345 118.728015 -0.000000 0.000000 0.000000 
-120.617600 85.527500 -52.476900 -3.857656 0.787448 63.627940 -1.588021 -22.574281 -32.157655 -0.000000 20.797519 -0.000000 1.164669 21.586138 7.095107 -0.000000 2.271420 -0.000000 0.000000 0.000000 0.000000 6.756080 -4.289236 36.547702 -0.000000 26.680929 0.000000 -4.181553 12.708722 -9.331519 -0.000000 -15.768390 -0.000000 -0.000000 -0.000000 -0.000000 2.461259 7.754385 -9.457158 0.000000 1.309715 0.000000 0.000000 -0.000000 -0.000000 2.097582 -0.000000 -5.258315 83.162123 -20.017448 38.345950 -0.000000 -40.706228 -0.000000 7.231581 10.000128 -8.312387 -0.000000 0.000000 -0.000000 3.591575 0.000000 0.553289 -41.790624 24.211132 -25.291789 -179.999393 -76.720343 -179.999224 1.512207 21.080705 17.644055 -0.000000 0.000000 -0.000000 0.000000 -0.000000 -0.000000 3.023604 23.765121 121.165858 0.000000 0.000000 -0.000000 
-123.074900 85.029600 -53.170500 -4.514942 0.327806 64.685559 -2.637594 -25.627088 -35.202111 0.000000 23.767955 -0.000000 2.441074 23.413217 9.927884 -0.000000 2.873281 0.000000 0.000000 0.000000 0.000000 6.652605 -4.444697 38.251613 0.000000 23.133393 -0.000000 -4.392100 7.152464 -10.732663 -0.000000 -11.041244 -0.000000 -0.000000 0.000000 0.000000 2.119667 8.170652 -11.223541 -0.000000 0.986012 -0.000000 -0.000000 -0.000000 -0.000000 4.014911 -0.000000 -6.434998 86.256347 -21.455237 39.006831 0.000000 -34.127850 -0.000000 8.272293 11.445531 -6.356813 -0.000000 0.000000 -0.000000 5.621138 0.000000 1.119601 -40.254019 22.872505 -21.161995 -179.999147 -80.315270 -179.998982 3.241934 21.528166 18.975206 -0.000000 -0.000000 -0.000000 -0.000000 -0.000000 -0.000000 4.885642 23.369130 123.989635 0.000000 -0.000000 0.000000 
-125.369400 84.675000 -53.920400 -5.029907 0.094522 64.903200 -4.480891 -28.454402 -37.661509 0.000000 27.008706 -0.000000 7.508694 25.861417 12.964047 0.000000 3.334050 0.000000 -0.000000 -0.000000 -0.000000 6.152694 -4.825066 38.407464 0.000000 19.980409 -0.000000 -4.861244 3.418078 -10.790240 0.000000 -8.180084 -0.000000 -0.000000 -0.000000 -0.000000 1.792264 8.502197 -11.935872 0.000000 0.725767 0.000000 0.000000 -0.000000 0.000000 5.431511 -0.000000 -7.567425 89.530671 -22.616419 38.884342 -0.000000 -27.959911 -0.000000 8.927981 13.028569 -4.953521 -0.000000 -0.000000 -0.000000 6.779994 0.000000 1.993266 -38.471420 21.925844 -17.635705 -179.998818 -82.892575 -179.998657 4.742092 22.711686 21.518866 -0.000000 -0.000000 -0.000000 0.000000 -0.000000 0.000000 5.870559 23.189072 126.081420 -0.000000 0.000000 -0.000000 
-127.265200 84.668400 -54.608400 -4.673297 0.306834 64.112951 -6.616899 -29.790797 -38.271693 0.000000 29.267654 -0.000000 15.028644 28.371710 13.886038 -0.000000 3.225056 -0.000000 -0.000000 0.000000 -0.000000 5.794431 -6.360606 36.567997 0.000000 20.646128 -0.000000 -4.139685 3.288688 -7.578998 -0.000000 -7.974024 -0.000000 -0.000000 -0.000000 -0.000000 0.943195 9.158242 -10.977687 0.000000 0.693546 -0.000000 0.000000 -0.000000 -0.000000 5.988787 -0.000000 -8.330534 92.076492 -24.336588 39.254001 -0.000000 -23.255243 -0.000000 9.642499 14.622652 -3.187376 -0.000000 -0.000000 -0.000000 7.742346 0.000000 2.695653 -36.779522 21.181504 -14.849199 -179.998519 -84.280681 -179.998360 4.960493 24.366702 26.947168 -0.000000 0.000000 -0.000000 0.000000 -0.000000 -0.000000 4.967609 23.278126 130.146416 0.000000 0.000000 0.000000 
-128.748200 84.982800 -54.920100 -4.555111 -0.452045 62.781720 -6.777709 -29.721641 -37.013518 -0.000000 31.232594 0.000000 15.419313 24.430439 9.560321 -0.000000 1.452866 -0.000000 -0.000000 0.000000 -0.000000 6.899741 -7.144286 37.050134 -0.000000 21.376202 -0.000000 -3.171948 4.080710 -6.236050 -0.000000 -7.766910 -0.000000 -0.000000 0.000000 0.000000 1.772983 9.324971 -9.475013 0.000000 0.660659 -0.000000 -0.000000 -0.000000 0.000000 5.752155 0.000000 -8.473515 92.341208 -26.060034 39.646792 -0.000000 -21.017813 -0.000000 9.994974 15.618278 -1.352687 -0.000000 0.000000 0.000000 6.821191 -0.000000 3.618084 -33.554796 20.561460 -12.187357 -179.997633 -86.381948 -179.997476 3.667312 25.214873 31.198463 -0.000000 -0.000000 -0.000000 -0.000000 -0.000000 0.000000 2.188522 24.440409 133.282855 -0.000000 0.000000 0.000000 
-129.800600 85.330100 -55.160500 -4.288774 -1.030899 61.601754 -7.646349 -28.460461 -35.669914 -0.000000 33.398088 -0.000000 13.610534 19.380687 2.982377 -0.000000 0.536461 -0.000000 0.000000 0.000000 0.000000 7.024632 -6.765757 37.114435 0.000000 20.102147 -0.000000 -2.481700 5.051287 -5.033448 -0.000000 -7.697535 -0.000000 0.000000 -0.000000 -0.000000 2.690812 9.142532 -8.603774 0.000000 0.639746 -0.000000 -0.000000 0.000000 -0.000000 5.078102 -0.000000 -8.224853 91.982806 -26.794820 38.629281 -0.000000 -20.374959 0.000000 9.033709 15.920403 -0.123070 -0.000000 0.000000 -0.000000 5.580517 0.000000 4.578670 -31.126847 19.658420 -9.048345 -179.994478 -88.433526 -179.994324 3.038079 26.392766 32.980072 -0.000000 -0.000000 -0.000000 -0.000000 0.000000 -0.000000 -0.583081 25.608566 135.751290 -0.000000 0.000000 0.000000 
-130.703900 85.602800 -55.244800 -4.019648 -1.118221 60.874341 -8.980378 -26.625894 -33.692400 0.000000 34.893524 0.000000 11.247370 16.645028 -1.655584 -0.000000 -0.298792 -0.000000 -0.000000 0.000000 -0.000000 6.752329 -6.391156 37.110750 0.000000 18.604869 -0.000000 -2.143998 6.202962 -4.415313 0.000000 -7.841575 -0.000000 0.000000 -0.000000 -0.000000 3.007399 8.595285 -7.964151 -0.000000 0.550636 -0.000000 0.000000 -0.000000 -0.000000 4.591685 0.000000 -8.024501 91.481732 -27.326958 37.460207 -0.000000 -19.991217 -0.000000 8.649192 15.909409 -0.011609 -0.000000 0.000000 0.000000 5.260365 0.000000 4.918915 -30.336689 18.598206 -5.531856 -179.979009 -89.585765 -179.978856 3.086461 27.382010 36.331341 -0.000000 0.000000 -0.000000 0.000000 -0.000000 -0.000000 -2.013987 26.428633 136.867951 -0.000000 0.000000 -0.000000 
-131.525000 85.754700 -55.092100 -3.758977 -1.250644 60.872122 -10.207128 -23.799080 -31.891153 -0.000000 34.983820 0.000000 9.854957 15.463341 -3.588653 -0.000000 -0.853122 -0.000000 -0.000000 0.000000 0.000000 6.886394 -6.334388 37.076342 0.000000 17.945361 -0.000000 -1.679893 7.124489 -4.328935 -0.000000 -7.893086 0.000000 0.000000 -0.000000 -0.000000 3.305339 8.050796 -7.612586 -0.000000 0.419936 0.000000 -0.000000 0.000000 0.000000 4.174623 0.000000 -8.067887 91.118577 -27.826974 37.044295 -0.000000 -19.682646 -0.000000 8.741801 16.015269 0.193188 -0.000000 0.000000 -0.000000 5.251077 -0.000000 4.687608 -29.972959 17.672008 -2.276604 -0.031741 -89.725570 -0.031589 2.009947 27.299411 39.726766 -0.000000 0.000000 -0.000000 -0.000000 0.000000 0.000000 -2.464383 27.143350 137.451575 0.000000 0.000000 -0.000000 
